<svg xmlns="http://www.w3.org/2000/svg"><symbol fill="none" viewBox="0 0 247 47" id="line-1-accessories" xmlns="http://www.w3.org/2000/svg"><path opacity=".37" d="M246 41.33C112.088 67.14 156.11-22.703 1 7.156" stroke="#E6E6E6" stroke-width="1.5" stroke-dasharray="9 4"/></symbol><symbol fill="none" viewBox="0 0 229 115" id="line-1-specification" xmlns="http://www.w3.org/2000/svg"><ellipse cx="223.692" cy="110.5" rx="5.308" ry="4.5" transform="rotate(-180 223.692 110.5)" fill="#C4C4C4"/><path d="M220.901 107L94.889 1H0" stroke="#C4C4C4" stroke-width=".5"/></symbol><symbol fill="none" viewBox="0 0 465 64" id="line-2-accessories" xmlns="http://www.w3.org/2000/svg"><path opacity=".37" d="M1.5 63.5C22 32.5 74 5.934 179.5 15c105.5 9.066 184 54 285-14" stroke="#E6E6E6" stroke-width="1.5" stroke-dasharray="9 4"/></symbol><symbol fill="none" viewBox="0 0 206 146" id="line-2-specification" xmlns="http://www.w3.org/2000/svg"><ellipse rx="4.215" ry="4.5" transform="matrix(-1 0 0 1 201.215 141.5)" fill="#C4C4C4"/><path d="M205 144L42.597 1H0" stroke="#C4C4C4" stroke-width=".5"/></symbol><symbol fill="none" viewBox="0 0 256 41" id="line-3-accessories" xmlns="http://www.w3.org/2000/svg"><path opacity=".37" d="M255 34.979C120.193 60.69 157.148-22.21 1 7.537" stroke="#E6E6E6" stroke-width="1.5" stroke-dasharray="9 4"/></symbol><symbol fill="none" viewBox="0 0 273 394" id="line-3-specification" xmlns="http://www.w3.org/2000/svg"><ellipse cx="4.451" cy="389.36" rx="4.451" ry="4.313" transform="rotate(-180 4.451 389.36)" fill="#C4C4C4"/><path d="M273 1H139.928L8 387" stroke="#C4C4C4" stroke-width=".5"/></symbol><symbol fill="none" viewBox="0 0 174 111" id="line-4-specification" xmlns="http://www.w3.org/2000/svg"><ellipse cx="4.451" cy="106.36" rx="4.451" ry="4.313" transform="rotate(-180 4.451 106.36)" fill="#C4C4C4"/><path d="M174 1H90.642L8 104" stroke="#C4C4C4" stroke-width=".5"/></symbol></svg>